<svg width="380" height="79" viewBox="0 0 380 79" fill="none" xmlns="http://www.w3.org/2000/svg">
<rect width="370" height="46.25" rx="6" fill="white"/>
<path d="M64.9411 38.6792H53.8996L49.7842 29.3441H47.6261V38.6792H37.5884V7.31142H53.3978C60.5914 7.31142 64.1883 10.9752 64.1883 18.3027C64.1883 23.3215 62.6324 26.634 59.5207 28.24L64.9411 38.6792ZM47.6261 15.3416V21.6151H49.9348C51.1393 21.6151 52.0092 21.498 52.5446 21.2638C53.1134 20.9961 53.3978 20.4106 53.3978 19.5072V17.4495C53.3978 16.5461 53.1134 15.9773 52.5446 15.7431C52.0092 15.4754 51.1393 15.3416 49.9348 15.3416H47.6261Z" fill="black"/>
<path d="M66.9604 23.0204C66.9604 17.2989 68.0311 13.1333 70.1724 10.5235C72.3138 7.88022 76.1783 6.55859 81.766 6.55859C87.3536 6.55859 91.2181 7.88022 93.3595 10.5235C95.5009 13.1333 96.5715 17.2989 96.5715 23.0204C96.5715 25.8644 96.3373 28.2567 95.8689 30.1973C95.4339 32.1379 94.6644 33.8276 93.5602 35.2664C92.4561 36.7051 90.9337 37.7591 88.9931 38.4282C87.0525 39.0974 84.6434 39.432 81.766 39.432C78.8885 39.432 76.4795 39.0974 74.5388 38.4282C72.5982 37.7591 71.0758 36.7051 69.9717 35.2664C68.8675 33.8276 68.0813 32.1379 67.6128 30.1973C67.1779 28.2567 66.9604 25.8644 66.9604 23.0204ZM77.7509 17.8008V30.8498H81.9165C83.2884 30.8498 84.2754 30.6992 84.8777 30.3981C85.5134 30.0635 85.8312 29.3274 85.8312 28.1898V15.1408H81.6154C80.277 15.1408 79.29 15.3081 78.6543 15.6427C78.052 15.9438 77.7509 16.6632 77.7509 17.8008Z" fill="black"/>
<path d="M118.498 38.6792L110.819 27.5373C110.551 27.1693 110.384 26.3663 110.317 25.1283H110.117V38.6792H100.079V7.31142H109.514L117.193 18.4532C117.461 18.8213 117.628 19.6243 117.695 20.8623H117.896V7.31142H127.933V38.6792H118.498Z" fill="black"/>
<path d="M155.3 15.3416H148.022V38.6792H137.985V15.3416H130.707V7.31142H155.3V15.3416Z" fill="black"/>
<path d="M156.805 38.1271L158.211 29.846C161.289 30.6156 164.049 31.0003 166.492 31.0003C168.968 31.0003 170.959 30.9 172.464 30.6992V28.1898L167.947 27.7883C163.865 27.4202 161.055 26.4499 159.516 24.8774C158.01 23.2713 157.257 20.9125 157.257 17.8008C157.257 13.5181 158.177 10.5737 160.018 8.96764C161.891 7.36161 165.053 6.55859 169.503 6.55859C173.953 6.55859 177.968 6.97683 181.548 7.81331L180.294 15.8434C177.182 15.3416 174.689 15.0906 172.816 15.0906C170.942 15.0906 169.353 15.1743 168.048 15.3416V17.8008L171.661 18.1521C176.044 18.5871 179.072 19.641 180.745 21.314C182.418 22.9535 183.255 25.2454 183.255 28.1898C183.255 30.2977 182.97 32.0878 182.402 33.56C181.833 34.9987 181.147 36.1028 180.344 36.8724C179.574 37.6085 178.47 38.1773 177.031 38.5788C175.593 38.9803 174.321 39.2145 173.217 39.2814C172.146 39.3818 170.708 39.432 168.901 39.432C164.551 39.432 160.519 38.997 156.805 38.1271Z" fill="black"/>
<path d="M209.36 15.3416H202.083V38.6792H192.045V15.3416H184.768V7.31142H209.36V15.3416Z" fill="black"/>
<path d="M217.834 38.6792H207.244L215.375 7.31142H230.883L239.014 38.6792H228.424L227.27 33.7105H218.988L217.834 38.6792ZM222.853 16.9476L220.795 25.7306H225.413L223.405 16.9476H222.853Z" fill="black"/>
<path d="M261.768 29.6954L262.521 38.1271C260.413 38.997 257.769 39.432 254.591 39.432C251.412 39.432 248.853 39.0974 246.912 38.4282C245.005 37.7591 243.499 36.7051 242.395 35.2664C241.291 33.8276 240.521 32.1379 240.086 30.1973C239.651 28.2567 239.434 25.8644 239.434 23.0204C239.434 20.1764 239.651 17.7841 240.086 15.8434C240.521 13.8694 241.291 12.163 242.395 10.7242C244.536 7.94714 248.468 6.55859 254.189 6.55859C255.461 6.55859 256.95 6.69243 258.656 6.9601C260.396 7.19432 261.684 7.49545 262.521 7.86349L261.015 15.5423C258.84 15.0739 256.849 14.8397 255.043 14.8397C253.236 14.8397 251.981 15.007 251.278 15.3416C250.576 15.6762 250.224 16.3453 250.224 17.3491V30.4985C251.529 30.7661 252.851 30.9 254.189 30.9C257.033 30.9 259.56 30.4985 261.768 29.6954Z" fill="black"/>
<path d="M276.072 25.0279V38.6792H266.034V7.31142H276.072V20.1095H276.272C276.339 19.1057 276.506 18.3027 276.774 17.7004L281.693 7.31142H292.533L285.005 22.7193L292.784 38.6792H281.944L276.774 27.437C276.506 26.8347 276.339 26.0317 276.272 25.0279H276.072Z" fill="black"/>
<path d="M295.885 37.826C295.148 37.0564 294.78 35.6846 294.78 33.7105C294.78 31.7364 295.148 30.3479 295.885 29.5449C296.621 28.7419 298.059 28.3404 300.201 28.3404C302.376 28.3404 303.831 28.7419 304.567 29.5449C305.303 30.3479 305.671 31.7364 305.671 33.7105C305.671 35.6846 305.303 37.0564 304.567 37.826C303.831 38.5955 302.376 38.9803 300.201 38.9803C298.059 38.9803 296.621 38.5955 295.885 37.826Z" fill="black"/>
<path d="M325.727 31.1007H319.202V38.6792H309.164V7.31142H324.974C332.167 7.31142 335.764 11.1759 335.764 18.9049C335.764 23.1542 334.828 26.2994 332.954 28.3404C332.251 29.1099 331.281 29.7624 330.043 30.2977C328.805 30.8331 327.366 31.1007 325.727 31.1007ZM319.202 15.3416V23.0706H321.511C322.715 23.0706 323.585 22.9535 324.121 22.7193C324.689 22.4516 324.974 21.8661 324.974 20.9627V17.4495C324.974 16.5461 324.689 15.9773 324.121 15.7431C323.585 15.4754 322.715 15.3416 321.511 15.3416H319.202Z" fill="black"/>
<path d="M358.843 38.6792H338.768V7.31142H348.805V30.649H358.843V38.6792Z" fill="black"/>
<path d="M20.2699 38.6791H11.1001V7.21013H20.2699V38.6791Z" fill="black"/>
<path d="M22.1455 14.5043V7.21013H35.4834V14.5043H22.1455Z" fill="black"/>
<path d="M22.1455 27.2169V19.9228H33.6077V27.2169H22.1455Z" fill="black"/>
<path d="M20.2699 38.6791H11.1001V7.21013H20.2699V38.6791Z" fill="black"/>
<path d="M22.1455 14.5043V7.21013H35.4834V14.5043H22.1455Z" fill="black"/>
<path d="M22.1455 27.2169V19.9228H33.6077V27.2169H22.1455Z" fill="black"/>
<path d="M295.795 37.9176C295.041 37.1311 294.665 35.729 294.665 33.7115C294.665 31.694 295.041 30.2749 295.795 29.4542C296.549 28.6335 298.022 28.2231 300.215 28.2231C302.443 28.2231 303.933 28.6335 304.687 29.4542C305.441 30.2749 305.818 31.694 305.818 33.7115C305.818 35.729 305.441 37.1311 304.687 37.9176C303.933 38.704 302.443 39.0973 300.215 39.0973C298.022 39.0973 296.549 38.704 295.795 37.9176Z" fill="#EF5350"/>
<path d="M156.646 38.1217L158.041 29.7569C161.156 30.5271 163.757 30.8722 166.266 31.0116C168.772 31.0116 170.867 30.7328 172.4 30.5934L172.354 28.2641L167.783 27.8622C163.652 27.4938 160.992 26.4514 159.435 24.8775C157.911 23.2701 157.204 20.8818 157.204 17.7675C157.204 13.4811 157.991 10.5919 159.853 8.98452C161.749 7.37713 164.969 6.4751 169.472 6.4751C173.976 6.4751 177.977 7.03275 181.601 7.72981L180.278 15.9072C177.128 15.4049 174.606 15.1538 172.71 15.1538C170.813 15.1538 169.399 15.23 168.078 15.3975V17.7675L171.564 18.0463C175.999 18.4816 179.072 19.5784 180.765 21.2528C182.458 22.8937 183.274 25.3172 183.274 28.2641C183.274 30.3738 182.986 32.1653 182.411 33.6388C181.835 35.0787 181.141 36.1838 180.328 36.954C179.55 37.6907 178.432 38.26 176.976 38.6619C175.52 39.0637 174.233 39.2981 173.116 39.3651C172.032 39.4656 170.464 39.5158 168.636 39.5158C164.234 39.5158 160.405 38.9923 156.646 38.1217Z" fill="#EF5350"/>
<path d="M20.2699 38.6409H11.1001V7.17188H20.2699V38.6409Z" fill="black"/>
<path d="M22.1455 14.466V7.17188H35.4834V14.466H22.1455Z" fill="black"/>
<path d="M22.1455 27.1789V19.8848H33.6077V27.1789H22.1455Z" fill="#EF5350"/>
<rect x="253" y="43.1675" width="125" height="35.3982" rx="5" transform="rotate(-2.82806 253 43.1675)" fill="#EF5350"/>
<path d="M268.954 71.4145L267.95 51.0757L272.865 50.8328L273.29 59.4331L273.558 59.4199L279.857 50.4875L285.647 50.2015L278.885 59.6346L286.781 70.5339L280.901 70.8243L275.442 63.08L273.598 65.6599L273.87 71.1717L268.954 71.4145ZM299.89 49.4978L304.796 49.2555L305.444 62.3744C305.519 63.8906 305.224 65.2292 304.558 66.3904C303.891 67.545 302.928 68.462 301.667 69.1415C300.406 69.8144 298.922 70.193 297.213 70.2774C295.485 70.3627 293.961 70.1328 292.64 69.5874C291.318 69.0355 290.272 68.2177 289.502 67.1341C288.731 66.0439 288.309 64.7408 288.234 63.2246L287.586 50.1057L292.502 49.8628L293.129 62.5547C293.163 63.2565 293.346 63.8747 293.678 64.4091C294.016 64.9433 294.471 65.3522 295.043 65.6359C295.614 65.9196 296.268 66.0433 297.002 66.007C297.737 65.9707 298.372 65.7834 298.906 65.4451C299.447 65.1064 299.859 64.6547 300.143 64.0898C300.427 63.5249 300.552 62.8915 300.517 62.1897L299.89 49.4978ZM308.882 69.4421L307.877 49.1033L316.279 48.6882C317.802 48.613 319.13 48.8229 320.262 49.3178C321.402 49.8057 322.298 50.5446 322.95 51.5344C323.603 52.5176 323.963 53.7044 324.032 55.0948C324.102 56.505 323.853 57.7185 323.286 58.7354C322.719 59.7457 321.882 60.537 320.775 61.1094C319.668 61.6751 318.34 61.9962 316.791 62.0728L311.478 62.3352L311.286 58.4621L315.686 58.2448C316.427 58.2081 317.042 58.0816 317.529 57.865C318.022 57.6416 318.388 57.3248 318.627 56.9148C318.865 56.4982 318.969 55.9754 318.938 55.3464C318.906 54.7175 318.752 54.2041 318.473 53.8064C318.194 53.402 317.798 53.1097 317.285 52.9293C316.771 52.7423 316.147 52.6669 315.412 52.7032L312.989 52.8229L313.798 69.1993L308.882 69.4421ZM319.873 59.581L325.397 68.6263L320.035 68.8912L314.61 59.841L319.873 59.581ZM337.689 53.7432C337.587 53.0182 337.264 52.4667 336.721 52.0886C336.184 51.7037 335.436 51.5349 334.476 51.5823C333.84 51.6137 333.315 51.7226 332.899 51.9091C332.484 52.0955 332.177 52.3396 331.98 52.6414C331.782 52.9366 331.689 53.2697 331.701 53.6408C331.702 53.946 331.775 54.2112 331.919 54.4364C332.07 54.6612 332.278 54.8567 332.545 55.0227C332.819 55.1817 333.144 55.3183 333.521 55.4324C333.899 55.5465 334.321 55.6418 334.79 55.7182L336.557 56.0291C337.574 56.1978 338.476 56.4453 339.262 56.7715C340.055 57.0974 340.725 57.499 341.273 57.9763C341.827 58.4534 342.256 59.0129 342.56 59.6549C342.864 60.297 343.039 61.025 343.086 61.839C343.143 63.1238 342.873 64.2421 342.276 65.1941C341.68 66.1461 340.791 66.8969 339.61 67.4463C338.436 67.9955 337.001 68.3119 335.307 68.3956C333.605 68.4797 332.109 68.298 330.82 67.8507C329.53 67.4034 328.508 66.6773 327.755 65.6725C327.002 64.6678 326.576 63.3714 326.478 61.7834L331.185 61.5508C331.258 62.2043 331.46 62.7419 331.793 63.1635C332.125 63.5851 332.569 63.895 333.123 64.0933C333.684 64.2912 334.325 64.3724 335.046 64.3367C335.708 64.304 336.267 64.1869 336.721 63.9852C337.183 63.7832 337.531 63.5171 337.767 63.1869C338.003 62.8567 338.114 62.4862 338.1 62.0754C338.075 61.6917 337.939 61.3698 337.694 61.1098C337.449 60.8432 337.08 60.6225 336.586 60.4478C336.1 60.2661 335.481 60.1075 334.731 59.972L332.581 59.5804C330.8 59.2635 329.381 58.6799 328.324 57.8295C327.266 56.9725 326.702 55.7726 326.633 54.2296C326.564 52.972 326.847 51.853 327.482 50.8725C328.117 49.8921 329.024 49.1073 330.203 48.5181C331.382 47.9289 332.743 47.5962 334.285 47.52C335.861 47.4422 337.241 47.6428 338.427 48.1218C339.618 48.5939 340.558 49.2941 341.248 50.2224C341.938 51.1507 342.32 52.2467 342.396 53.5106L337.689 53.7432ZM343.843 47.3266L349.335 47.0553L354.055 55.3538L354.234 55.345L358.114 46.6217L363.606 46.3504L356.836 60.2638L357.172 67.0566L352.286 67.298L351.95 60.5052L343.843 47.3266Z" fill="white"/>
</svg>
