<svg width="370" height="82" viewBox="0 0 370 82" fill="none" xmlns="http://www.w3.org/2000/svg">
<rect width="370" height="46.25" rx="6" fill="white"/>
<path d="M64.9411 38.6792H53.8996L49.7842 29.3441H47.6261V38.6792H37.5884V7.31142H53.3978C60.5914 7.31142 64.1883 10.9752 64.1883 18.3027C64.1883 23.3215 62.6324 26.634 59.5207 28.24L64.9411 38.6792ZM47.6261 15.3416V21.6151H49.9348C51.1393 21.6151 52.0092 21.498 52.5446 21.2638C53.1134 20.9961 53.3978 20.4106 53.3978 19.5072V17.4495C53.3978 16.5461 53.1134 15.9773 52.5446 15.7431C52.0092 15.4754 51.1393 15.3416 49.9348 15.3416H47.6261Z" fill="black"/>
<path d="M66.9604 23.0204C66.9604 17.2989 68.0311 13.1333 70.1724 10.5235C72.3138 7.88022 76.1783 6.55859 81.766 6.55859C87.3536 6.55859 91.2181 7.88022 93.3595 10.5235C95.5009 13.1333 96.5715 17.2989 96.5715 23.0204C96.5715 25.8644 96.3373 28.2567 95.8689 30.1973C95.4339 32.1379 94.6644 33.8276 93.5602 35.2664C92.4561 36.7051 90.9337 37.7591 88.9931 38.4282C87.0525 39.0974 84.6434 39.432 81.766 39.432C78.8885 39.432 76.4795 39.0974 74.5388 38.4282C72.5982 37.7591 71.0758 36.7051 69.9717 35.2664C68.8675 33.8276 68.0813 32.1379 67.6128 30.1973C67.1779 28.2567 66.9604 25.8644 66.9604 23.0204ZM77.7509 17.8008V30.8498H81.9165C83.2884 30.8498 84.2754 30.6992 84.8777 30.3981C85.5134 30.0635 85.8312 29.3274 85.8312 28.1898V15.1408H81.6154C80.277 15.1408 79.29 15.3081 78.6543 15.6427C78.052 15.9438 77.7509 16.6632 77.7509 17.8008Z" fill="black"/>
<path d="M118.498 38.6792L110.819 27.5373C110.551 27.1693 110.384 26.3663 110.317 25.1283H110.117V38.6792H100.079V7.31142H109.514L117.193 18.4532C117.461 18.8213 117.628 19.6243 117.695 20.8623H117.896V7.31142H127.933V38.6792H118.498Z" fill="black"/>
<path d="M155.3 15.3416H148.022V38.6792H137.985V15.3416H130.707V7.31142H155.3V15.3416Z" fill="black"/>
<path d="M156.805 38.1271L158.211 29.846C161.289 30.6156 164.049 31.0003 166.492 31.0003C168.968 31.0003 170.959 30.9 172.464 30.6992V28.1898L167.947 27.7883C163.865 27.4202 161.055 26.4499 159.516 24.8774C158.01 23.2713 157.257 20.9125 157.257 17.8008C157.257 13.5181 158.177 10.5737 160.018 8.96764C161.891 7.36161 165.053 6.55859 169.503 6.55859C173.953 6.55859 177.968 6.97683 181.548 7.81331L180.294 15.8434C177.182 15.3416 174.689 15.0906 172.816 15.0906C170.942 15.0906 169.353 15.1743 168.048 15.3416V17.8008L171.661 18.1521C176.044 18.5871 179.072 19.641 180.745 21.314C182.418 22.9535 183.255 25.2454 183.255 28.1898C183.255 30.2977 182.97 32.0878 182.402 33.56C181.833 34.9987 181.147 36.1028 180.344 36.8724C179.574 37.6085 178.47 38.1773 177.031 38.5788C175.593 38.9803 174.321 39.2145 173.217 39.2814C172.146 39.3818 170.708 39.432 168.901 39.432C164.551 39.432 160.519 38.997 156.805 38.1271Z" fill="black"/>
<path d="M209.36 15.3416H202.083V38.6792H192.045V15.3416H184.768V7.31142H209.36V15.3416Z" fill="black"/>
<path d="M217.834 38.6792H207.244L215.375 7.31142H230.883L239.014 38.6792H228.424L227.27 33.7105H218.988L217.834 38.6792ZM222.853 16.9476L220.795 25.7306H225.413L223.405 16.9476H222.853Z" fill="black"/>
<path d="M261.768 29.6954L262.521 38.1271C260.413 38.997 257.769 39.432 254.591 39.432C251.412 39.432 248.853 39.0974 246.912 38.4282C245.005 37.7591 243.499 36.7051 242.395 35.2664C241.291 33.8276 240.521 32.1379 240.086 30.1973C239.651 28.2567 239.434 25.8644 239.434 23.0204C239.434 20.1764 239.651 17.7841 240.086 15.8434C240.521 13.8694 241.291 12.163 242.395 10.7242C244.536 7.94714 248.468 6.55859 254.189 6.55859C255.461 6.55859 256.95 6.69243 258.656 6.9601C260.396 7.19432 261.684 7.49545 262.521 7.86349L261.015 15.5423C258.84 15.0739 256.849 14.8397 255.043 14.8397C253.236 14.8397 251.981 15.007 251.278 15.3416C250.576 15.6762 250.224 16.3453 250.224 17.3491V30.4985C251.529 30.7661 252.851 30.9 254.189 30.9C257.033 30.9 259.56 30.4985 261.768 29.6954Z" fill="black"/>
<path d="M276.072 25.0279V38.6792H266.034V7.31142H276.072V20.1095H276.272C276.339 19.1057 276.506 18.3027 276.774 17.7004L281.693 7.31142H292.533L285.005 22.7193L292.784 38.6792H281.944L276.774 27.437C276.506 26.8347 276.339 26.0317 276.272 25.0279H276.072Z" fill="black"/>
<path d="M295.885 37.826C295.148 37.0564 294.78 35.6846 294.78 33.7105C294.78 31.7364 295.148 30.3479 295.885 29.5449C296.621 28.7419 298.059 28.3404 300.201 28.3404C302.376 28.3404 303.831 28.7419 304.567 29.5449C305.303 30.3479 305.671 31.7364 305.671 33.7105C305.671 35.6846 305.303 37.0564 304.567 37.826C303.831 38.5955 302.376 38.9803 300.201 38.9803C298.059 38.9803 296.621 38.5955 295.885 37.826Z" fill="black"/>
<path d="M325.727 31.1007H319.202V38.6792H309.164V7.31142H324.974C332.167 7.31142 335.764 11.1759 335.764 18.9049C335.764 23.1542 334.828 26.2994 332.954 28.3404C332.251 29.1099 331.281 29.7624 330.043 30.2977C328.805 30.8331 327.366 31.1007 325.727 31.1007ZM319.202 15.3416V23.0706H321.511C322.715 23.0706 323.585 22.9535 324.121 22.7193C324.689 22.4516 324.974 21.8661 324.974 20.9627V17.4495C324.974 16.5461 324.689 15.9773 324.121 15.7431C323.585 15.4754 322.715 15.3416 321.511 15.3416H319.202Z" fill="black"/>
<path d="M358.843 38.6792H338.768V7.31142H348.805V30.649H358.843V38.6792Z" fill="black"/>
<path d="M20.2699 38.6791H11.1001V7.21013H20.2699V38.6791Z" fill="black"/>
<path d="M22.1455 14.5043V7.21013H35.4834V14.5043H22.1455Z" fill="black"/>
<path d="M22.1455 27.2169V19.9228H33.6077V27.2169H22.1455Z" fill="black"/>
<path d="M20.2699 38.6791H11.1001V7.21013H20.2699V38.6791Z" fill="black"/>
<path d="M22.1455 14.5043V7.21013H35.4834V14.5043H22.1455Z" fill="black"/>
<path d="M22.1455 27.2169V19.9228H33.6077V27.2169H22.1455Z" fill="black"/>
<path d="M295.795 37.9176C295.041 37.1311 294.665 35.729 294.665 33.7115C294.665 31.694 295.041 30.2749 295.795 29.4542C296.549 28.6335 298.022 28.2231 300.215 28.2231C302.443 28.2231 303.933 28.6335 304.687 29.4542C305.441 30.2749 305.818 31.694 305.818 33.7115C305.818 35.729 305.441 37.1311 304.687 37.9176C303.933 38.704 302.443 39.0973 300.215 39.0973C298.022 39.0973 296.549 38.704 295.795 37.9176Z" fill="#EF5350"/>
<path d="M156.646 38.1217L158.041 29.7569C161.156 30.5271 163.757 30.8722 166.266 31.0116C168.772 31.0116 170.867 30.7328 172.4 30.5934L172.354 28.2641L167.783 27.8622C163.652 27.4938 160.992 26.4514 159.435 24.8775C157.911 23.2701 157.204 20.8818 157.204 17.7675C157.204 13.4811 157.991 10.5919 159.853 8.98452C161.749 7.37713 164.969 6.4751 169.472 6.4751C173.976 6.4751 177.977 7.03275 181.601 7.72981L180.278 15.9072C177.128 15.4049 174.606 15.1538 172.71 15.1538C170.813 15.1538 169.399 15.23 168.078 15.3975V17.7675L171.564 18.0463C175.999 18.4816 179.072 19.5784 180.765 21.2528C182.458 22.8937 183.274 25.3172 183.274 28.2641C183.274 30.3738 182.986 32.1653 182.411 33.6388C181.835 35.0787 181.141 36.1838 180.328 36.954C179.55 37.6907 178.432 38.26 176.976 38.6619C175.52 39.0637 174.233 39.2981 173.116 39.3651C172.032 39.4656 170.464 39.5158 168.636 39.5158C164.234 39.5158 160.405 38.9923 156.646 38.1217Z" fill="#EF5350"/>
<path d="M20.2699 38.6409H11.1001V7.17188H20.2699V38.6409Z" fill="black"/>
<path d="M22.1455 14.466V7.17188H35.4834V14.466H22.1455Z" fill="black"/>
<path d="M22.1455 27.1789V19.8848H33.6077V27.1789H22.1455Z" fill="#EF5350"/>
<path d="M48.3195 57.0909L52.8899 71.4574H53.0653L57.6448 57.0909H62.0766L55.5582 76H50.4062L43.8785 57.0909H48.3195ZM78.8781 76H74.594L81.1217 57.0909H86.2737L92.7922 76H88.5081L83.7716 61.4119H83.6239L78.8781 76ZM78.6104 68.5675H88.7297V71.6882H78.6104V68.5675ZM115.551 76H108.848V57.0909H115.607C117.509 57.0909 119.146 57.4695 120.519 58.2266C121.891 58.9775 122.947 60.0578 123.685 61.4673C124.43 62.8769 124.803 64.5634 124.803 66.527C124.803 68.4967 124.43 70.1894 123.685 71.6051C122.947 73.0208 121.885 74.1072 120.5 74.8643C119.121 75.6214 117.472 76 115.551 76ZM112.846 72.5746H115.385C116.567 72.5746 117.561 72.3653 118.367 71.9467C119.18 71.522 119.789 70.8665 120.195 69.9801C120.608 69.0876 120.814 67.9366 120.814 66.527C120.814 65.1297 120.608 63.9879 120.195 63.1016C119.789 62.2152 119.183 61.5627 118.377 61.1442C117.57 60.7256 116.576 60.5163 115.394 60.5163H112.846V72.5746ZM141.544 76V57.0909H154.286V60.3871H145.542V64.8928H153.63V68.1889H145.542V72.7038H154.323V76H141.544ZM171.244 57.0909H176.174L181.382 69.7955H181.603L186.811 57.0909H191.741V76H187.863V63.6925H187.706L182.813 75.9077H180.172L175.279 63.6463H175.122V76H171.244V57.0909ZM208.815 76V57.0909H221.557V60.3871H212.813V64.8928H220.901V68.1889H212.813V72.7038H221.593V76H208.815ZM255.199 63.7109H251.155C251.081 63.1877 250.93 62.723 250.702 62.3168C250.475 61.9044 250.182 61.5535 249.825 61.2642C249.468 60.9749 249.056 60.7533 248.588 60.5994C248.126 60.4455 247.625 60.3686 247.083 60.3686C246.104 60.3686 245.252 60.6117 244.526 61.098C243.799 61.5781 243.236 62.2798 242.836 63.2031C242.436 64.1203 242.236 65.2344 242.236 66.5455C242.236 67.8935 242.436 69.026 242.836 69.9432C243.242 70.8603 243.809 71.5528 244.535 72.0206C245.261 72.4884 246.101 72.7223 247.055 72.7223C247.591 72.7223 248.086 72.6515 248.542 72.5099C249.004 72.3684 249.413 72.1622 249.77 71.8913C250.127 71.6143 250.422 71.2789 250.656 70.8849C250.896 70.491 251.063 70.0417 251.155 69.5369L255.199 69.5554C255.094 70.4233 254.833 71.2604 254.414 72.0668C254.002 72.867 253.445 73.584 252.743 74.218C252.047 74.8459 251.216 75.3445 250.25 75.7138C249.29 76.0769 248.203 76.2585 246.991 76.2585C245.304 76.2585 243.796 75.8769 242.467 75.1136C241.143 74.3504 240.097 73.2455 239.327 71.799C238.564 70.3525 238.183 68.6013 238.183 66.5455C238.183 64.4834 238.57 62.7292 239.346 61.2827C240.122 59.8362 241.174 58.7344 242.504 57.9773C243.833 57.214 245.329 56.8324 246.991 56.8324C248.086 56.8324 249.102 56.9863 250.038 57.294C250.979 57.6018 251.814 58.0511 252.54 58.642C253.266 59.2268 253.857 59.9439 254.313 60.7933C254.774 61.6428 255.07 62.6153 255.199 63.7109ZM283.525 57.0909H287.523V69.3707C287.523 70.7495 287.194 71.956 286.535 72.9901C285.883 74.0241 284.969 74.8305 283.793 75.4091C282.618 75.9815 281.248 76.2678 279.685 76.2678C278.115 76.2678 276.742 75.9815 275.567 75.4091C274.391 74.8305 273.477 74.0241 272.824 72.9901C272.172 71.956 271.846 70.7495 271.846 69.3707V57.0909H275.844V69.0291C275.844 69.7493 276.001 70.3894 276.315 70.9496C276.635 71.5097 277.084 71.9498 277.663 72.2699C278.241 72.59 278.915 72.75 279.685 72.75C280.46 72.75 281.134 72.59 281.707 72.2699C282.285 71.9498 282.731 71.5097 283.045 70.9496C283.365 70.3894 283.525 69.7493 283.525 69.0291V57.0909ZM304.593 57.0909H309.523L314.73 69.7955H314.952L320.159 57.0909H325.09V76H321.212V63.6925H321.055L316.161 75.9077H313.521L308.627 63.6463H308.47V76H304.593V57.0909Z" fill="white"/>
</svg>
